<svg width="70" height="32" viewBox="0 0 70 32" fill="none" xmlns="http://www.w3.org/2000/svg">
<path d="M0.546984 21.5252H14.3987C15.3208 21.5252 15.9607 21.3876 16.3149 21.1089C16.669 20.832 16.8461 20.4366 16.8461 19.9245C16.8461 19.4124 16.669 18.9909 16.3149 18.7244C15.9607 18.4579 15.3208 18.3238 14.3987 18.3238H7.15112C5.94845 18.3238 4.89657 18.1531 3.99369 17.8117C3.09257 17.4703 2.34572 17.0017 1.75491 16.4043C1.1641 15.8068 0.72405 15.1084 0.434779 14.3072C0.145508 13.5077 0 12.649 0 11.731C0 9.87426 0.596075 8.37632 1.78822 7.23369C2.98037 6.09281 4.81066 5.52148 7.28086 5.52148H20.81V10.3219H7.28086C6.35695 10.3219 5.71879 10.456 5.36465 10.7225C5.01051 10.989 4.83345 11.3896 4.83345 11.9226C4.83345 12.4556 5.01051 12.8301 5.36465 13.1071C5.71879 13.384 6.35695 13.5233 7.28086 13.5233H14.5284C15.7311 13.5233 16.783 13.694 17.6858 14.0354C18.587 14.3768 19.3338 14.8471 19.9246 15.4428C20.5154 16.0403 20.9555 16.7387 21.2447 17.5399C21.534 18.3394 21.6795 19.1999 21.6795 20.1161C21.6795 21.0323 21.534 21.877 21.2447 22.6452C20.9555 23.4133 20.5084 24.07 19.9071 24.6134C19.3057 25.1569 18.5484 25.5784 17.6367 25.878C16.7233 26.1776 15.6452 26.3256 14.3987 26.3256H0.546984V21.5252ZM31.9863 0.5H35.2069V31.5H31.9863V0.5ZM69.9965 17.3658C69.9965 18.7104 69.7808 19.9314 69.3531 21.0305C68.9236 22.1296 68.3117 23.0737 67.5175 23.8627C66.7233 24.6517 65.7731 25.2596 64.6669 25.6864C63.5606 26.1131 62.3317 26.3256 60.9782 26.3256H54.5354C53.182 26.3256 51.953 26.1131 50.8468 25.6864C49.7405 25.2596 48.7903 24.6517 47.9961 23.8627C47.202 23.0737 46.5901 22.1296 46.1606 21.0305C45.7311 19.9314 45.5172 18.7104 45.5172 17.3658V5.52497H50.6715V17.3658C50.6715 18.6251 51.0256 19.6336 51.7339 20.3895C52.4422 21.1472 53.3766 21.5252 54.5372 21.5252H60.98C62.1388 21.5252 63.0733 21.1472 63.7833 20.3895C64.4916 19.6318 64.8457 18.6251 64.8457 17.3658V5.52497H70V17.3658H69.9965Z" fill="url(#paint0_linear_1826_14277)"/>
<defs>
<linearGradient id="paint0_linear_1826_14277" x1="4.49653" y1="1.72368" x2="36.2573" y2="44.939" gradientUnits="userSpaceOnUse">
<stop stop-color="#211257"/>
<stop offset="0.528846" stop-color="#4C1192"/>
<stop offset="0.870192" stop-color="#790EB4"/>
<stop offset="1" stop-color="#8A04C5"/>
</linearGradient>
</defs>
</svg>
