<svg width="1082" height="331" viewBox="0 0 1082 331" fill="none" xmlns="http://www.w3.org/2000/svg">
<path d="M441.873 214.838H569.54C578.039 214.838 583.937 213.571 587.201 211.003C590.465 208.451 592.097 204.808 592.097 200.09C592.097 195.372 590.465 191.488 587.201 189.033C583.937 186.578 578.039 185.342 569.54 185.342H502.742C491.657 185.342 481.962 183.769 473.641 180.624C465.335 177.478 458.452 173.161 453.006 167.657C447.561 162.152 443.505 155.717 440.839 148.335C438.173 140.968 436.832 133.057 436.832 124.599C436.832 107.492 442.326 93.6902 453.313 83.1625C464.301 72.6509 481.17 67.3869 503.937 67.3869H628.631V111.616H503.937C495.422 111.616 489.54 112.852 486.276 115.307C483.012 117.762 481.38 121.454 481.38 126.364C481.38 131.275 483.012 134.726 486.276 137.277C489.54 139.829 495.422 141.113 503.937 141.113H570.736C581.82 141.113 591.515 142.685 599.837 145.831C608.142 148.976 615.025 153.31 620.471 158.798C625.916 164.303 629.972 170.738 632.638 178.12C635.304 185.486 636.645 193.414 636.645 201.855C636.645 210.297 635.304 218.08 632.638 225.158C629.972 232.235 625.851 238.285 620.309 243.292C614.767 248.299 607.786 252.183 599.384 254.943C590.966 257.703 581.028 259.068 569.54 259.068H441.873V214.838ZM731.64 21.1211H761.322V306.742H731.64V21.1211ZM1081.97 176.515C1081.97 188.904 1079.98 200.154 1076.04 210.281C1072.08 220.407 1066.44 229.105 1059.12 236.375C1051.8 243.645 1043.04 249.246 1032.85 253.178C1022.65 257.11 1011.32 259.068 998.849 259.068H939.467C926.993 259.068 915.666 257.11 905.47 253.178C895.274 249.246 886.517 243.645 879.197 236.375C871.877 229.105 866.238 220.407 862.279 210.281C858.32 200.154 856.349 188.904 856.349 176.515V67.4191H903.855V176.515C903.855 188.118 907.118 197.41 913.646 204.375C920.174 211.356 928.787 214.838 939.483 214.838H998.865C1009.55 214.838 1018.16 211.356 1024.7 204.375C1031.23 197.394 1034.49 188.118 1034.49 176.515V67.4191H1082V176.515H1081.97Z" fill="url(#paint0_linear_2034_365)"/>
<path d="M3.17343 321.925H3.18282C3.11709 321.99 3.05137 322.065 2.98565 322.14C3.04198 322.065 3.1077 321.99 3.17343 321.925ZM5.83047 319.261C6.18725 318.906 6.57219 318.523 6.97591 318.111C6.5628 318.513 6.17786 318.897 5.83047 319.261ZM12.3839 312.691C19.388 305.69 29.1899 295.868 37.5272 287.606C30.5888 294.382 19.9607 305.036 12.3839 312.691ZM327.98 6.08328L292.566 41.3367L289.327 44.5611C289.327 44.5611 289.27 44.6078 289.242 44.6358C288.923 44.9443 281.074 52.5146 282.529 67.6552C282.782 70.3189 283.092 72.9358 283.421 75.7116C285.177 90.4784 287.158 107.217 282.322 140.928C276.943 178.406 259.301 215.931 236.27 238.857C214.967 260.063 154.456 291.213 82.7532 284.503C82.6124 284.484 82.4716 284.466 82.3401 284.428C82.0679 284.363 56.1171 278.138 42.3155 290.802C42.0902 291.008 41.8648 291.223 41.6489 291.438C41.1888 291.896 40.7194 292.354 40.25 292.821C33.0581 299.859 22.674 310.279 15.4822 317.532C15.454 317.569 15.4165 317.597 15.3883 317.635C15.1536 317.85 14.9376 318.074 14.7217 318.298L14.0833 318.934C13.8673 319.149 13.6514 319.364 13.4448 319.569C12.7594 320.261 12.1116 320.906 11.5201 321.504C11.4825 321.551 11.4356 321.597 11.3981 321.635C11.2572 321.784 11.1164 321.925 10.9756 322.056C10.8347 322.196 10.7033 322.326 10.5718 322.457C10.4404 322.588 10.3183 322.719 10.1963 322.841C10.0648 322.962 9.95217 323.093 9.83011 323.205C9.36067 323.682 8.94757 324.093 8.60018 324.448C8.50629 324.532 8.42179 324.616 8.34668 324.7C7.62374 325.429 7.21063 325.841 7.18246 325.869C6.63791 326.42 5.90558 326.7 5.18264 326.7C4.4597 326.7 3.75554 326.429 3.20159 325.887C3.13587 325.822 3.07015 325.747 3.00443 325.672C2.88237 325.523 2.7791 325.373 2.6946 325.214C2.21577 324.317 2.26271 323.224 2.82604 322.364C2.87298 322.289 2.92932 322.214 2.98565 322.14C3.05137 322.065 3.11709 321.99 3.18282 321.925C3.18282 321.925 3.1922 321.925 3.21098 321.897C3.22037 321.887 3.23915 321.869 3.25793 321.85C3.30487 321.803 3.3612 321.747 3.4457 321.663C3.52081 321.588 3.6147 321.485 3.72737 321.373L3.98087 321.121C4.02781 321.074 4.07475 321.037 4.11231 320.99C4.18742 320.915 4.26253 320.831 4.34703 320.756C4.50664 320.588 4.68503 320.411 4.87281 320.224C4.97608 320.13 5.06997 320.027 5.17325 319.925C5.27653 319.822 5.3798 319.719 5.49247 319.597C5.60514 319.495 5.7178 319.373 5.83047 319.261C6.18725 318.906 6.57219 318.523 6.97591 318.111C7.57679 317.513 8.2434 316.85 8.94756 316.13C9.37945 315.7 9.83011 315.242 10.2996 314.775C10.5343 314.541 10.7784 314.308 11.0225 314.055C11.4638 313.616 11.9144 313.158 12.3839 312.691C19.388 305.69 29.1899 295.868 37.5272 287.606C37.5741 287.568 37.6305 287.512 37.6774 287.466C37.837 287.316 37.9872 287.157 38.1469 287.008C39.5646 285.615 40.8133 284.419 41.8179 283.466C47.592 277.998 46.8315 270.4 45.1509 253.745C44.5125 247.483 43.7332 239.698 43.1793 230.473C42.1653 213.463 40.6819 126.059 111.727 76.1321C113.624 74.8143 158.596 44.1125 218.506 45.3274C233.219 45.6265 244.335 46.1966 252.447 46.6079C276.342 47.8322 277.891 47.907 287.956 37.9908L323.99 2.12055L327.98 6.08328ZM182.359 264.736C176.905 265.661 171.299 266.138 165.582 266.138C110.187 266.138 65.121 221.277 65.121 166.135C65.121 150.751 68.6324 136.162 74.9042 123.124C47.085 167.799 48.0709 217.865 48.8032 230.137C49.3477 239.249 50.0895 246.651 50.7561 253.184C51.9578 265.072 52.7841 273.306 50.7091 279.68C65.1116 274.886 81.2604 278.409 83.4856 278.933C121.097 282.419 155.46 275.269 182.359 264.736ZM260.409 166.135C260.409 114.087 217.877 71.7395 165.582 71.7395C113.286 71.7395 70.7543 114.087 70.7543 166.135C70.7543 218.183 113.295 260.53 165.582 260.53C217.868 260.53 260.409 218.183 260.409 166.135ZM277.835 76.3658C277.497 73.562 277.187 70.917 276.924 68.188C276.257 61.2999 277.281 55.7016 278.82 51.3837C273.206 53.2809 266.145 52.9258 252.165 52.2062C244.082 51.7949 233.022 51.2342 218.394 50.9351C177.233 50.0846 142.682 65.2533 125.895 74.2722C138.072 69.0291 151.489 66.1318 165.582 66.1318C220.976 66.1318 266.042 110.993 266.042 166.135C266.042 172.742 265.394 179.191 264.155 185.444C270.164 171.079 274.52 155.611 276.745 140.134C281.477 107.142 279.543 90.7961 277.835 76.3658ZM15.4822 317.532C22.1952 310.821 31.8469 301.167 40.25 292.821C33.0581 299.859 22.674 310.279 15.4822 317.532ZM327.98 2.12055C326.872 1.02706 325.098 1.02706 323.99 2.12055L327.98 6.08328C329.079 4.98979 329.079 3.21404 327.98 2.12055ZM306.471 83.7118L327.417 71.3376C328.76 70.5432 329.201 68.8235 328.403 67.4963C327.614 66.1692 325.877 65.7299 324.544 66.515L303.598 78.8892C302.255 79.6836 301.814 81.4033 302.612 82.7305C303.138 83.609 304.076 84.1043 305.034 84.1043C305.522 84.1043 306.02 83.9735 306.471 83.7118ZM306.884 128.358L326.844 121.993C328.328 121.526 329.145 119.946 328.666 118.47C328.187 116.993 326.61 116.18 325.126 116.657L305.165 123.021C303.682 123.489 302.865 125.068 303.344 126.545C303.729 127.732 304.837 128.498 306.029 128.498C306.311 128.498 306.602 128.452 306.893 128.367L306.884 128.358ZM329.304 169.415C329.304 167.864 328.046 166.611 326.488 166.611H298.79C297.232 166.611 295.974 167.864 295.974 169.415C295.974 170.967 297.232 172.219 298.79 172.219H326.488C328.046 172.219 329.304 170.967 329.304 169.415ZM328.572 231.455C329.182 230.025 328.506 228.38 327.079 227.782L283.609 209.454C282.182 208.846 280.52 209.519 279.919 210.94C279.309 212.37 279.985 214.015 281.412 214.613L324.882 232.941C325.239 233.09 325.614 233.165 325.981 233.165C327.079 233.165 328.121 232.52 328.572 231.455ZM327.962 328.345C329.069 327.261 329.079 325.486 327.99 324.383L254.137 249.96C253.048 248.857 251.264 248.848 250.156 249.932C249.048 251.016 249.039 252.792 250.128 253.895L323.981 328.317C324.535 328.869 325.258 329.149 325.981 329.149C326.703 329.149 327.408 328.878 327.962 328.336V328.345ZM221.567 304.092C223.004 303.494 223.68 301.849 223.079 300.419L214.15 279.213C213.549 277.783 211.897 277.11 210.46 277.708C209.024 278.306 208.348 279.951 208.949 281.381L217.877 302.588C218.328 303.662 219.37 304.307 220.478 304.307C220.844 304.307 221.21 304.233 221.567 304.092ZM231.454 328.626C232.89 328.028 233.566 326.383 232.965 324.953L229.679 317.139C229.078 315.71 227.426 315.037 225.989 315.635C224.553 316.233 223.877 317.878 224.478 319.308L227.764 327.121C228.215 328.196 229.257 328.841 230.365 328.841C230.731 328.841 231.097 328.766 231.454 328.626ZM170.896 327.458V297.158C170.896 295.606 169.638 294.354 168.079 294.354C166.52 294.354 165.262 295.606 165.262 297.158V327.458C165.262 329.009 166.52 330.261 168.079 330.261C169.638 330.261 170.896 329.009 170.896 327.458ZM120.525 328.364L128.514 305.111C129.021 303.644 128.233 302.055 126.759 301.55C125.285 301.045 123.689 301.831 123.182 303.298L115.192 326.551C114.685 328.018 115.473 329.607 116.947 330.112C117.248 330.215 117.558 330.261 117.858 330.261C119.032 330.261 120.121 329.532 120.525 328.364ZM70.9796 325.934L81.636 307.98C82.4246 306.644 81.9834 304.924 80.6408 304.139C79.3075 303.354 77.5706 303.793 76.7819 305.13L66.1256 323.084C65.3369 324.42 65.7782 326.14 67.1208 326.925C67.5715 327.186 68.0597 327.317 68.5479 327.317C69.515 327.317 70.4539 326.822 70.9796 325.943V325.934ZM6.35624 263.829L24.5424 251.782C25.8381 250.922 26.1855 249.184 25.3311 247.894C24.4673 246.605 22.721 246.259 21.4253 247.109L3.23915 259.156C1.94349 260.016 1.5961 261.755 2.45048 263.044C2.99504 263.857 3.88698 264.297 4.79769 264.297C5.33286 264.297 5.87741 264.147 6.35624 263.829ZM6.1403 213.463L22.8806 207.407C24.3453 206.874 25.0964 205.267 24.5612 203.818C24.026 202.36 22.4112 201.613 20.9559 202.145L4.21559 208.202C2.75093 208.734 1.99982 210.342 2.53498 211.79C2.94809 212.931 4.02781 213.641 5.18264 213.641C5.50186 213.641 5.83047 213.585 6.14969 213.473L6.1403 213.463ZM31.8094 161.752C31.8094 160.2 30.5513 158.948 28.9927 158.948H2.81665C1.2581 158.948 0 160.2 0 161.752C0 163.303 1.2581 164.555 2.81665 164.555H28.9927C30.5513 164.555 31.8094 163.303 31.8094 161.752ZM46.3245 118.283C46.963 116.872 46.3245 115.208 44.9068 114.582L6.78813 97.6188C5.37042 96.9832 3.6992 97.6188 3.07015 99.03C2.43171 100.441 3.07015 102.105 4.48786 102.731L42.6066 119.694C42.9821 119.862 43.3671 119.937 43.752 119.937C44.8317 119.937 45.8551 119.32 46.3245 118.274V118.283ZM76.6693 78.5154C77.7772 77.4312 77.7959 75.6555 76.7068 74.5527L5.28591 2.14856C4.19681 1.04572 2.41293 1.02705 1.30505 2.11119C0.197165 3.19534 0.178387 4.97109 1.26749 6.07392L72.6884 78.478C73.2423 79.0387 73.9653 79.3191 74.6976 79.3191C75.4299 79.3191 76.1247 79.0481 76.6693 78.5154ZM116.872 48.1313C118.299 47.5051 118.938 45.8508 118.309 44.4302L111.154 28.2989C110.525 26.8783 108.864 26.2428 107.437 26.8689C106.009 27.4951 105.371 29.1494 106 30.57L113.154 46.7013C113.624 47.7481 114.647 48.3743 115.736 48.3743C116.112 48.3743 116.506 48.2995 116.872 48.1313ZM102.686 16.3359C104.113 15.7097 104.751 14.0555 104.122 12.6349L100.01 3.35424C99.3809 1.93364 97.7191 1.29807 96.2919 1.92426C94.8648 2.55045 94.2264 4.20473 94.8555 5.62533L98.9678 14.906C99.4372 15.9527 100.461 16.5789 101.55 16.5789C101.925 16.5789 102.32 16.5041 102.686 16.3359ZM163.065 32.0841V5.57855C163.065 4.0271 161.807 2.77473 160.249 2.77473C158.69 2.77473 157.432 4.0271 157.432 5.57855V32.0841C157.432 33.6355 158.69 34.8879 160.249 34.8879C161.807 34.8879 163.065 33.6355 163.065 32.0841ZM205.897 27.626L213.887 4.68137C214.394 3.21403 213.615 1.62519 212.15 1.11116C210.686 0.606469 209.071 1.38217 208.564 2.84016L200.574 25.7848C200.067 27.2522 200.846 28.8409 202.311 29.355C202.621 29.4578 202.93 29.5139 203.231 29.5139C204.395 29.5139 205.494 28.7849 205.888 27.626H205.897ZM248.232 29.2148L264.822 5.35426C265.704 4.08319 265.385 2.33549 264.108 1.45696C262.831 0.578426 261.076 0.896202 260.193 2.16727L243.603 26.0278C242.72 27.2988 243.04 29.0466 244.316 29.9251C244.805 30.2616 245.368 30.4204 245.913 30.4204C246.804 30.4204 247.687 29.9999 248.232 29.2148Z" fill="url(#paint1_linear_2034_365)"/>
<defs>
<linearGradient id="paint0_linear_2034_365" x1="478.275" y1="32.3956" x2="770.877" y2="430.657" gradientUnits="userSpaceOnUse">
<stop stop-color="#211257"/>
<stop offset="0.528846" stop-color="#4C1192"/>
<stop offset="0.870192" stop-color="#790EB4"/>
<stop offset="1" stop-color="#8A04C5"/>
</linearGradient>
<linearGradient id="paint1_linear_2034_365" x1="21.1532" y1="13.9559" x2="333.702" y2="202.289" gradientUnits="userSpaceOnUse">
<stop stop-color="#211257"/>
<stop offset="0.528846" stop-color="#4C1192"/>
<stop offset="0.870192" stop-color="#790EB4"/>
<stop offset="1" stop-color="#8A04C5"/>
</linearGradient>
</defs>
</svg>
